HIERARCHY
ROOT Hips
{
  OFFSET 5.80788e-005 67.184 3.4734
  CHANNELS 6 Xposition Yposition Zposition Zrotation Xrotation Yrotation
  JOINT Chest
  {
    OFFSET 0 8.7983 -4.7612
    CHANNELS 3 Zrotation Xrotation Yrotation
    JOINT Chest2
    {
      OFFSET 0 8.0291 0.4195
      CHANNELS 3 Zrotation Xrotation Yrotation
      JOINT Chest3
      {
        OFFSET 0 9.9351 -2.2114
        CHANNELS 3 Zrotation Xrotation Yrotation
        JOINT Neck
        {
          OFFSET 0 22.3885 -0.4656
          CHANNELS 3 Zrotation Xrotation Yrotation
          JOINT Head
          {
            OFFSET -0.0001 12.643 3.4389
            CHANNELS 3 Zrotation Xrotation Yrotation
            End Site
            {
              OFFSET 0.0001 17.6655 0.5274
            }
          }
        }
        JOINT LeftCollar
        {
          OFFSET 2.2603 21.606 7.4023
          CHANNELS 3 Zrotation Xrotation Yrotation
          JOINT LeftShoulder
          {
            OFFSET 13.5163 -1.1332 -5.0146
            CHANNELS 3 Zrotation Xrotation Yrotation
            JOINT LeftElbow
            {
              OFFSET -0.0995 -28.05 -0.2431
              CHANNELS 3 Zrotation Xrotation Yrotation
              JOINT LeftWrist
              {
                OFFSET 0.0679 -23.3996 -0.1402
                CHANNELS 3 Zrotation Xrotation Yrotation
                JOINT LeftFinger1
                {
                  OFFSET 0.7932 -9.069 2.5189
                  CHANNELS 3 Zrotation Xrotation Yrotation
                  JOINT LeftFinger11
                  {
                    OFFSET -0.8272 -3.3923 0.5977
                    CHANNELS 3 Zrotation Xrotation Yrotation
                    JOINT LeftFinger12
                    {
                      OFFSET -0.5649 -2.3158 0.4082
                      CHANNELS 3 Zrotation Xrotation Yrotation
                      End Site
                      {
                        OFFSET -0.4919 -1.6479 0.2673
                      }
                    }
                  }
                }
                JOINT LeftFinger2
                {
                  OFFSET 0.9159 -9.2044 0.2193
                  CHANNELS 3 Zrotation Xrotation Yrotation
                  JOINT LeftFinger21
                  {
                    OFFSET 0.0117 -4.1944 -0.0248
                    CHANNELS 3 Zrotation Xrotation Yrotation
                    JOINT LeftFinger22
                    {
                      OFFSET 0.0071 -2.3249 -0.0142
                      CHANNELS 3 Zrotation Xrotation Yrotation
                      End Site
                      {
                        OFFSET -0.1475 -2.0882 0.0028
                      }
                    }
                  }
                }
                JOINT LeftFinger3
                {
                  OFFSET 0.6113 -8.7231 -2.0637
                  CHANNELS 3 Zrotation Xrotation Yrotation
                  JOINT LeftFinger31
                  {
                    OFFSET -0.1927 -3.8059 -0.2383
                    CHANNELS 3 Zrotation Xrotation Yrotation
                    JOINT LeftFinger32
                    {
                      OFFSET -0.1091 -2.1688 -0.1362
                      CHANNELS 3 Zrotation Xrotation Yrotation
                      End Site
                      {
                        OFFSET -0.2358 -1.9176 -0.0906
                      }
                    }
                  }
                }
                JOINT LeftFinger4
                {
                  OFFSET -0.6151 -8.0947 -3.5641
                  CHANNELS 3 Zrotation Xrotation Yrotation
                  JOINT LeftFinger41
                  {
                    OFFSET -0.4882 -2.341 -0.6462
                    CHANNELS 3 Zrotation Xrotation Yrotation
                    JOINT LeftFinger42
                    {
                      OFFSET -0.3575 -1.7167 -0.4742
                      CHANNELS 3 Zrotation Xrotation Yrotation
                      End Site
                      {
                        OFFSET -0.4187 -1.5237 -0.3496
                      }
                    }
                  }
                }
                JOINT LeftFinger0
                {
                  OFFSET -1.42 -1.8761 1.4223
                  CHANNELS 3 Zrotation Xrotation Yrotation
                  JOINT LeftFinger01
                  {
                    OFFSET -1.1471 -3.4929 2.6334
                    CHANNELS 3 Zrotation Xrotation Yrotation
                    JOINT LeftFinger02
                    {
                      OFFSET -0.823 -2.3 1.6571
                      CHANNELS 3 Zrotation Xrotation Yrotation
                      End Site
                      {
                        OFFSET -0.5822 -1.6914 1.1582
                      }
                    }
                  }
                }
              }
            }
          }
        }
        JOINT RightCollar
        {
          OFFSET -2.2603 21.606 7.4023
          CHANNELS 3 Zrotation Xrotation Yrotation
          JOINT RightShoulder
          {
            OFFSET -13.5187 -1.1334 -5.0155
            CHANNELS 3 Zrotation Xrotation Yrotation
            JOINT RightElbow
            {
              OFFSET 0.0994 -28.0499 -0.2431
              CHANNELS 3 Zrotation Xrotation Yrotation
              JOINT RightWrist
              {
                OFFSET -0.0679 -23.3996 -0.1402
                CHANNELS 3 Zrotation Xrotation Yrotation
                JOINT RightFinger1
                {
                  OFFSET -0.7932 -9.0691 2.5189
                  CHANNELS 3 Zrotation Xrotation Yrotation
                  JOINT RightFinger11
                  {
                    OFFSET 0.8272 -3.3923 0.5977
                    CHANNELS 3 Zrotation Xrotation Yrotation
                    JOINT RightFinger12
                    {
                      OFFSET 0.565 -2.3158 0.4082
                      CHANNELS 3 Zrotation Xrotation Yrotation
                      End Site
                      {
                        OFFSET 0.4919 -1.6479 0.2673
                      }
                    }
                  }
                }
                JOINT RightFinger2
                {
                  OFFSET -0.916 -9.2044 0.2193
                  CHANNELS 3 Zrotation Xrotation Yrotation
                  JOINT RightFinger21
                  {
                    OFFSET -0.0117 -4.1944 -0.0248
                    CHANNELS 3 Zrotation Xrotation Yrotation
                    JOINT RightFinger22
                    {
                      OFFSET -0.0071 -2.3249 -0.0142
                      CHANNELS 3 Zrotation Xrotation Yrotation
                      End Site
                      {
                        OFFSET 0.1475 -2.0882 0.0028
                      }
                    }
                  }
                }
                JOINT RightFinger3
                {
                  OFFSET -0.6113 -8.7231 -2.0637
                  CHANNELS 3 Zrotation Xrotation Yrotation
                  JOINT RightFinger31
                  {
                    OFFSET 0.1927 -3.8059 -0.2383
                    CHANNELS 3 Zrotation Xrotation Yrotation
                    JOINT RightFinger32
                    {
                      OFFSET 0.1091 -2.1688 -0.1362
                      CHANNELS 3 Zrotation Xrotation Yrotation
                      End Site
                      {
                        OFFSET 0.2358 -1.9176 -0.0906
                      }
                    }
                  }
                }
                JOINT RightFinger4
                {
                  OFFSET 0.6151 -8.0947 -3.564
                  CHANNELS 3 Zrotation Xrotation Yrotation
                  JOINT RightFinger41
                  {
                    OFFSET 0.4882 -2.341 -0.6462
                    CHANNELS 3 Zrotation Xrotation Yrotation
                    JOINT RightFinger42
                    {
                      OFFSET 0.3574 -1.7166 -0.4742
                      CHANNELS 3 Zrotation Xrotation Yrotation
                      End Site
                      {
                        OFFSET 0.4187 -1.5237 -0.3496
                      }
                    }
                  }
                }
                JOINT RightFinger0
                {
                  OFFSET 1.4199 -1.8761 1.4221
                  CHANNELS 3 Zrotation Xrotation Yrotation
                  JOINT RightFinger01
                  {
                    OFFSET 1.1472 -3.4929 2.6336
                    CHANNELS 3 Zrotation Xrotation Yrotation
                    JOINT RightFinger02
                    {
                      OFFSET 0.8229 -2.3 1.6571
                      CHANNELS 3 Zrotation Xrotation Yrotation
                      End Site
                      {
                        OFFSET 0.5822 -1.6914 1.1582
                      }
                    }
                  }
                }
              }
            }
          }
        }
      }
    }
  }
  JOINT RightHip
  {
    OFFSET -9.412 3.9771 -0.7758
    CHANNELS 3 Zrotation Xrotation Yrotation
    JOINT RightKnee
    {
      OFFSET -0.7531 -40.938 0
      CHANNELS 3 Zrotation Xrotation Yrotation
      JOINT RightAnkle
      {
        OFFSET 0 -40.1986 0
        CHANNELS 3 Zrotation Xrotation Yrotation
        JOINT RightToe
        {
          OFFSET 0 -4.4182 9.239
          CHANNELS 3 Zrotation Xrotation Yrotation
          End Site
          {
            OFFSET 0 0 6.1981
          }
        }
      }
    }
  }
  JOINT LeftHip
  {
    OFFSET 9.4119 3.9773 -0.7758
    CHANNELS 3 Zrotation Xrotation Yrotation
    JOINT LeftKnee
    {
      OFFSET 0.7532 -40.9383 0
      CHANNELS 3 Zrotation Xrotation Yrotation
      JOINT LeftAnkle
      {
        OFFSET 0 -40.1986 0
        CHANNELS 3 Zrotation Xrotation Yrotation
        JOINT LeftToe
        {
          OFFSET 0 -4.4182 9.239
          CHANNELS 3 Zrotation Xrotation Yrotation
          End Site
          {
            OFFSET 0 0 6.1981
          }
        }
      }
    }
  }
}
MOTION
Frames:	4
Frame Time:	0.0333333
5.80788e-005 67.184 3.4734 0 0 -0 0 0 -0 0 0 -0 0 0 -0 0 0 -0 0 0 -0 0 0 -12.5014 88.1196 14.2451 10.6914 -0.00160068 -0.00239207 0.000740045 -8.4365e-005 7.00714e-005 -9.52055e-007 9.93923e-017 -1.98785e-016 -1.59028e-015 9.93923e-017 -5.96354e-016 -1.59028e-015 -9.93923e-017 -5.96354e-016 -1.59028e-015 9.93923e-017 -1.98785e-016 -1.59028e-015 -0.0128176 0.00232552 8.52707e-005 9.93923e-017 5.96354e-016 -0 9.93923e-017 -1.98785e-016 -1.59028e-015 -0.0160551 0.00299681 0.000857156 -2.48481e-016 0 3.18055e-015 9.93923e-017 -1.98785e-016 -1.59028e-015 -0.0125865 0.0031206 0.00282719 0 1.98785e-016 -0 9.93923e-017 -1.98785e-016 -1.59028e-015 9.93923e-017 -5.96354e-016 -1.59028e-015 -9.93923e-017 -5.96354e-016 -1.59028e-015 -0.865644 0.16582 7.03859 -88.0329 10.2057 -10.5567 0.0015593 -0.00248883 -0.000788628 7.87605e-005 4.10553e-005 1.24965e-005 -3.97569e-016 -7.95139e-016 3.18055e-015 -1.98785e-016 -3.97569e-016 3.18055e-015 -1.98785e-016 0 3.18055e-015 -3.97569e-016 -7.95139e-016 3.18055e-015 0.0129473 0.00231697 -8.70038e-005 9.93923e-017 -7.95139e-016 1.59028e-015 -3.97569e-016 -7.95139e-016 3.18055e-015 0.0163314 0.00303369 -0.000872333 3.97569e-016 7.95139e-016 -3.18055e-015 -3.97569e-016 -7.95139e-016 3.18055e-015 0.0145763 0.00367772 -0.00326275 9.93923e-017 -3.97569e-016 -0 -3.97569e-016 -7.95139e-016 3.18055e-015 -1.98785e-016 -3.97569e-016 3.18055e-015 -1.98785e-016 0 3.18055e-015 3.42485 1.36937 -0.0640303 0.000136572 0.69354 0.00145564 -3.42573 -2.06297 -0.0607933 -3.19502e-024 0 -1.48106e-024 -3.42498 1.36123 0.0639712 -6.769e-005 0.712612 -0.0012277 3.42582 -2.07388 0.0612819 2.55305e-023 0 -2.31416e-026 
15.3491 20.3809 -34.1849 -66.6781 76.3044 -7.21204e-006 1.64925 -1.01537 -0.179566 3.29605 -2.03549 -0.32994 3.29606 -2.03549 -0.329941 -0.00871323 20.7948 -2.01811e-005 -0.0310073 14.4847 0.0092508 -12.0328 -3.78251 -44.5555 56.8133 0.189485 29.1506 29.9051 -46.1702 27.6125 -0.010836 0.0117776 0.00653757 1.90697e-006 -1.35434e-006 9.54863e-008 -6.36111e-015 -3.18055e-015 -0 4.73509e-006 -2.66195e-006 1.44516e-006 1.90697e-006 -1.35434e-006 9.54863e-008 -0.0128138 0.00232347 8.16799e-005 9.23129e-006 9.23744e-006 3.56808e-006 1.90697e-006 -1.35434e-006 9.54863e-008 -0.0160629 0.00299676 0.000858603 1.97135e-006 -6.79236e-007 -2.31727e-006 1.90697e-006 -1.35434e-006 9.54863e-008 -0.0125772 0.00311132 0.00282806 -7.98596e-007 -7.68197e-007 1.03809e-006 1.90697e-006 -1.35434e-006 9.54863e-008 -6.36111e-015 -3.18055e-015 -0 4.73509e-006 -2.66195e-006 1.44516e-006 -18.9919 -9.29841 30.3438 -72.2985 -15.8009 -28.7241 -51.9008 -48.3225 -92.6683 30.5124 12.3662 13.5101 -2.49979e-006 -4.38669e-006 9.99458e-006 6.36111e-015 4.77083e-015 -0 8.64357e-007 3.04271e-006 -1.13768e-005 -2.49979e-006 -4.38669e-006 9.99458e-006 0.0128949 0.00230641 -9.36515e-005 1.27222e-014 4.77083e-015 1.59028e-015 -2.49979e-006 -4.38669e-006 9.99458e-006 0.016316 0.0030388 -0.00087508 4.28902e-006 3.8477e-006 -9.00907e-006 -2.49979e-006 -4.38669e-006 9.99458e-006 0.0146063 0.0036889 -0.00327178 3.18055e-015 0 3.18055e-015 -2.49979e-006 -4.38669e-006 9.99458e-006 6.36111e-015 4.77083e-015 -0 8.64357e-007 3.04271e-006 -1.13768e-005 10.8786 -21.8707 3.38062 2.20583 26.3129 -17.8277 -3.03004 18.0864 0.705055 -1.59028e-015 0 -7.95139e-016 -6.57741 -53.1875 -3.06794 3.58712 35.6582 -1.68246 4.52402 3.15123 0.859681 -3.10418e-006 1.14215e-006 5.1612e-006 
28.8071 -1.04424 -48.3481 83.3168 69.3586 180 2.38774 -1.43731 -0.177739 4.77335 -2.88077 -0.295607 4.77334 -2.88078 -0.295607 -0.0127216 29.7304 -2.05402e-005 -0.0463246 20.2747 0.0132577 -18.663 -4.55869 -58.8964 43.5553 -7.26913 36.8883 42.0547 -66.3143 37.3482 0.0365861 -0.0416127 -0.022448 1.61112e-006 -2.2504e-006 -5.02329e-007 -1.59028e-015 -7.17393e-007 6.36111e-015 3.95589e-007 -8.36959e-007 1.56178e-006 1.61112e-006 -2.2504e-006 -5.02329e-007 -0.0128087 0.00232593 8.25203e-005 9.54166e-015 -3.6724e-006 -3.18055e-015 1.61112e-006 -2.2504e-006 -5.02329e-007 -0.0160382 0.00299271 0.000855197 -3.95349e-007 -6.83362e-009 -1.56181e-006 1.61112e-006 -2.2504e-006 -5.02329e-007 -0.0125764 0.00311687 0.00282651 8.05543e-007 -3.37646e-006 -2.51114e-007 1.61112e-006 -2.2504e-006 -5.02329e-007 -1.59028e-015 -7.17393e-007 6.36111e-015 3.95589e-007 -8.36959e-007 1.56178e-006 -24.7402 -12.3967 41.0553 -65.597 -27.8496 -36.7292 -86.8319 -67.3797 -142.646 44.4169 17.7149 18.7036 -3.18055e-015 3.18055e-015 -3.18055e-015 -8.82781e-032 1.59028e-015 3.18055e-015 -6.36111e-015 3.18055e-015 -0 -3.18055e-015 3.18055e-015 -3.18055e-015 0.0129489 0.002319 -9.15247e-005 6.36111e-015 1.59028e-015 3.18055e-015 -3.18055e-015 3.18055e-015 -3.18055e-015 0.0163324 0.00302969 -0.000879406 -1.19383e-006 1.57986e-006 -1.7876e-006 -3.18055e-015 3.18055e-015 -3.18055e-015 0.0146024 0.00368569 -0.00326862 -3.18055e-015 -6.36111e-015 9.54166e-015 -3.18055e-015 3.18055e-015 -3.18055e-015 -8.82781e-032 1.59028e-015 3.18055e-015 -6.36111e-015 3.18055e-015 -0 14.8976 -31.7438 5.31882 9.26054 33.7319 -28.6324 -4.3592 28.9074 1.49476 1.8243e-006 -2.6851e-006 2.857e-006 -16.4085 -77.7171 -12.2576 6.92009 52.3624 -3.74244 5.07838 4.50989 1.37831 1.89891e-006 -2.84576e-007 -3.6406e-006 
25.6272 4.13016 -45.3279 89.9846 76.9891 -180 2.22461 -1.26918 -0.19278 4.44654 -2.54491 -0.33624 4.44655 -2.54491 -0.336246 -0.0118369 26.8066 -1.33285e-005 -0.0424312 17.3692 0.0109787 -17.0271 -4.7015 -55.367 46.1965 -5.80057 35.1191 39.6927 -62.1376 35.5869 0.142423 -0.161563 -0.0861688 9.86641e-008 5.1352e-007 6.31136e-006 7.95139e-016 0 -0 1.50958e-007 1.14315e-007 1.3552e-006 9.86641e-008 5.1352e-007 6.31136e-006 -0.0128214 0.00232795 8.31524e-005 6.22153e-007 -2.81521e-006 7.79356e-006 9.86641e-008 5.1352e-007 6.31136e-006 -0.0160496 0.00300284 0.00085902 -5.76622e-007 -2.92974e-007 3.47399e-006 9.86641e-008 5.1352e-007 6.31136e-006 -0.0125885 0.00312885 0.00282283 -5.7654e-007 1.82445e-006 3.47404e-006 9.86641e-008 5.1352e-007 6.31136e-006 7.95139e-016 0 -0 1.50958e-007 1.14315e-007 1.3552e-006 -23.5888 -12.046 38.2117 -66.8093 -25.4027 -34.7831 -78.3048 -63.731 -130.805 41.1549 16.4883 17.6547 3.18055e-015 -3.18055e-015 -3.18055e-015 7.06225e-031 -6.36111e-015 6.36111e-015 -6.36111e-015 -4.77083e-015 -0 3.18055e-015 -3.18055e-015 -3.18055e-015 0.0129756 0.00231683 -7.59609e-005 -1.76556e-031 -1.59028e-015 -6.36111e-015 3.18055e-015 -3.18055e-015 -3.18055e-015 0.0163308 0.00302234 -0.000852833 -0 -3.18055e-015 -0 3.18055e-015 -3.18055e-015 -3.18055e-015 0.0145298 0.003665 -0.00325702 3.18055e-015 -4.77083e-015 6.36111e-015 3.18055e-015 -3.18055e-015 -3.18055e-015 7.06225e-031 -6.36111e-015 6.36111e-015 -6.36111e-015 -4.77083e-015 -0 13.9724 -29.1662 4.88979 7.05515 31.4939 -25.8339 -3.9658 26.9346 1.28856 3.97569e-015 0 -0 -11.9637 -72.4313 -7.99626 5.90422 48.5244 -3.06647 4.92456 4.16283 1.25211 -3.97569e-016 -1.59028e-015 4.96962e-016 
